<svg xmlns="http://www.w3.org/2000/svg" viewBox="0 0 152.62 75.41"><defs><style>.cls-1{fill:#df0000;}</style></defs><g id="katman_2" data-name="katman 2"><g id="Layer_1" data-name="Layer 1"><path class="cls-1" d="M87,35.75l-.14-.4h0L84.46,28.7,78,10.91A7.43,7.43,0,0,0,71,6H21.86a7.45,7.45,0,0,0-7,4.9L8.44,28.7,6,35.35l-.15.4a4.94,4.94,0,0,0-3.38,4.68V73a2.38,2.38,0,0,0,2.38,2.37h8.82A2.38,2.38,0,0,0,16.09,73V61.49H76.81V73a2.37,2.37,0,0,0,2.37,2.37H88A2.37,2.37,0,0,0,90.38,73V40.43A4.92,4.92,0,0,0,87,35.75Zm-64.23-21H70.12l7.51,20.75H15.26Zm1.32,35.38h-10a3.88,3.88,0,0,1,0-7.76h10a3.88,3.88,0,0,1,0,7.76Zm54.71,0h-10a3.88,3.88,0,1,1,0-7.76h10a3.88,3.88,0,1,1,0,7.76Z"/><path class="cls-1" d="M14.67,28.7l-2.4,6.65H2.61a2.15,2.15,0,0,1-1.88-1.3,9.52,9.52,0,0,1,0-7.3,2.14,2.14,0,0,1,1.88-1.29h9.63a2.14,2.14,0,0,1,1.88,1.29A16,16,0,0,1,14.67,28.7Z"/><path class="cls-1" d="M92.16,34.05a2.13,2.13,0,0,1-1.87,1.3H80.66L78.23,28.7a16,16,0,0,1,.55-1.95,2.14,2.14,0,0,1,1.88-1.29h9.63a2.12,2.12,0,0,1,1.87,1.29A9.43,9.43,0,0,1,92.16,34.05Z"/><path class="cls-1" d="M132.83,0a11.35,11.35,0,0,0-3.19,1.18,8,8,0,1,0,5.63-1c-.15,0-.3,0-.4-.14Z"/><path class="cls-1" d="M134.35,47.62c.84,2.61,1.63,5.06,2.41,7.51l4.83,15.13a4,4,0,0,0,3.48,3,4.3,4.3,0,0,0,4.38-1.89,4.06,4.06,0,0,0,.29-3.64Q146,56,142.23,44.28a4.48,4.48,0,0,1-.23-1.5c0-2.7,0-5.4,0-8.18a1,1,0,0,1,.43.6l4,7.88c.87,1.73,2,2.1,3.85,1.42,2.52-1,2.88-2.35,1.76-4.64-3.11-6.41-6.1-12.87-9.1-19.32a4,4,0,0,0-4-2.56c-3,0-6,0-9.05,0-2,0-2.83.86-2.89,2.84q-.12,4.08-.27,8.17a4.27,4.27,0,0,1-1.22,2.81q-3.47,3.81-6.91,7.63a2.62,2.62,0,0,0,0,4.05l.25.27c1.29,1.36,2.6,1.37,3.89,0s2.39-2.49,3.59-3.75a2,2,0,0,1,.52-.49c0,1.76.31,3.45-.51,5.15a39.69,39.69,0,0,0-3.38,9c-.49,2.36-.71,4.76-1,7.14-.4,3-.82,6.08-1.13,9.12A4.53,4.53,0,0,0,126,74.71a3.39,3.39,0,0,0,3-3.14c.36-3.11.73-6.23,1-9.36a31,31,0,0,1,2.37-9.8C133.06,50.88,133.66,49.32,134.35,47.62Z"/><rect class="cls-1" x="100.05" y="26.77" width="22.41" height="15.88" rx="1.45"/></g></g></svg>