<svg xmlns="http://www.w3.org/2000/svg" viewBox="0 0 127.99 99.77"><defs><style>.cls-1{fill:#df0000;}</style></defs><g id="katman_2" data-name="katman 2"><g id="Layer_1" data-name="Layer 1"><polygon class="cls-1" points="119.4 93.17 111 97.17 105.92 86.58 103.02 88.75 94.84 95.2 94.8 52.36 127.99 79.44 117.82 81.71 114.31 82.6 119.4 93.17"/><path class="cls-1" d="M8.06,62.79V8.06h95.28V55.57l8.06,6.57V6.05a6.06,6.06,0,0,0-6.06-6H6.06A6.06,6.06,0,0,0,0,6.05v68.4a6.07,6.07,0,0,0,6.06,6H42.53V90.65H30.07v9.12H81.33V90.65H68.87V80.5h23V62.79Z"/><path class="cls-1" d="M55.7,19.6v6A13.24,13.24,0,1,1,42.46,38.82h-6A19.22,19.22,0,1,0,55.7,19.6Z"/><polygon class="cls-1" points="55.7 12.82 44.26 22.71 44.26 22.86 55.7 32.68 55.7 25.58 55.7 19.6 55.7 12.82"/></g></g></svg>