<svg xmlns="http://www.w3.org/2000/svg" viewBox="0 0 133.05 101.7"><defs><style>.cls-1{fill:#df0000;}</style></defs><g id="katman_2" data-name="katman 2"><g id="Layer_1" data-name="Layer 1"><path class="cls-1" d="M62.17,82.64h-9.6V42a18.5,18.5,0,0,1-8.23,3.35V82.64H19.86V44.54a18.35,18.35,0,0,1-9.41.66v47H62.17"/><path class="cls-1" d="M27.76,27a13.88,13.88,0,1,0,27.75,0,13.88,13.88,0,1,0,27.76,0A13.88,13.88,0,1,0,111,27L97.83,0H13.2L0,27a13.88,13.88,0,0,0,27.76,0Z"/><path class="cls-1" d="M29.68,62.36a4.77,4.77,0,1,0,4.77-4.77A4.77,4.77,0,0,0,29.68,62.36Z"/><path class="cls-1" d="M100.58,57.59V45.2a18.35,18.35,0,0,1-9.41-.66V57.59"/><line class="cls-1" x1="100.58" y1="87.65" x2="100.58" y2="87.25"/><path class="cls-1" d="M133,82.85c0-2.23-1.26-4.32-3.92-4.55l-5-.64v-.09l-7.73-13.28c-1.24-2.31-2.82-3.76-4.87-3.9l-41.89.35a4,4,0,0,0-4,4.05l.26,26.32A4,4,0,0,0,69.64,95l4,0c0,.09,0,.17,0,.26a6.23,6.23,0,1,0,12.44-.12,2.3,2.3,0,0,0,0-.26L110,94.63c0,.09,0,.17,0,.26a6.23,6.23,0,1,0,12.44-.12c0-.09,0-.17,0-.26l7-.07a4,4,0,0,0,3.71-4Zm-25.14-5.26-.14-13.93,3.63,0,8.08,13.85Z"/></g></g></svg>