<svg xmlns="http://www.w3.org/2000/svg" viewBox="0 0 127 115.6"><defs><style>.cls-1{fill:#df0000;}</style></defs><g id="katman_2" data-name="katman 2"><g id="Layer_1" data-name="Layer 1"><path class="cls-1" d="M126.4,94.47l-25.21-38.1A3.59,3.59,0,0,0,97,55l-3.37,1.16a50,50,0,0,1-6.72,10l9.8-3.37,21.19,32L86,107.09l-6.74-31.4h0A80.26,80.26,0,0,0,73.82,85l4.56,21.2-30.87-12,3.06-12c-1-2-2.24-4-3.56-6-.55-.83-1.16-1.61-1.76-2.4L40.19,93.77,11.18,105,30.84,69.8l8.65-3a70.15,70.15,0,0,1-4.63-6l-7.68,2.64a3.64,3.64,0,0,0-2,1.65L0,110.22H0a9.65,9.65,0,0,0,10.78,2.68l32.45-12.56S82.92,115.6,83.31,115.6l41.38-15.77a3.61,3.61,0,0,0,1.71-5.36Z"/><path class="cls-1" d="M83.55,25.36a1.12,1.12,0,0,0-.57-1L63.59,13.05a1.17,1.17,0,0,0-1.16,0L43.7,24l-.44,14.32,0,5.29a1.14,1.14,0,0,0,.57,1L63.24,55.94a1.13,1.13,0,0,0,1.16,0L83,45a1.17,1.17,0,0,0,.57-1ZM63.8,52.55l-17.23-10V39.41l.38-13.55,5.29-3.1.2-.11,16.84,10.2v5.38l1.3-1.32.79.19.9-1.17.79.19L74,35l1,.23,0-5.6L57.81,19.5,63,16.44l17.23,10,0,16.4Z"/><path class="cls-1" d="M96.3,45c.11-.34.2-.69.29-1,.19-.65.36-1.31.51-2,.09-.39.16-.79.24-1.19.12-.68.23-1.37.31-2.07,0-.34.09-.69.13-1,.09-1,.16-2.11.16-3.18h0c0-1.06-.07-2.11-.16-3.15,0-.31-.07-.61-.11-.92-.09-.77-.2-1.53-.34-2.28-.06-.3-.11-.59-.17-.88-.21-1-.45-1.92-.73-2.86-.08-.26-.18-.51-.27-.77-.23-.69-.47-1.37-.74-2-.15-.37-.3-.72-.46-1.08-.26-.59-.55-1.17-.84-1.75-.16-.31-.31-.63-.48-.94-.41-.74-.84-1.46-1.3-2.16h0A34.59,34.59,0,0,0,74,1.67h0l-.11,0c-.34-.11-.69-.19-1-.29-.65-.18-1.3-.36-2-.5C70.53.75,70.13.67,69.73.6,69.05.47,68.36.37,67.67.29c-.35,0-.7-.1-1-.13C65.57.06,64.51,0,63.44,0h0A34.42,34.42,0,0,0,47,4.16a34.88,34.88,0,0,0-8,5.94A34.5,34.5,0,0,0,63.44,69h0c1.06,0,2.11-.07,3.15-.16l.93-.11c.77-.09,1.53-.2,2.28-.34l.88-.17c1-.2,1.92-.45,2.85-.73.26-.08.51-.18.77-.27.69-.22,1.37-.47,2-.74L77.41,66c.6-.26,1.18-.55,1.76-.84.31-.16.63-.31.94-.48.73-.41,1.46-.84,2.16-1.3h0a34.52,34.52,0,0,0,14-18.31h0Zm-19,14.67-.61.32c-.54.28-1.09.55-1.65.79-.22.1-.43.2-.66.29-.7.3-1.43.56-2.16.8l-.65.19c-.66.2-1.34.38-2,.53l-.43.1c-.81.16-1.63.28-2.46.37L66,63.1c-.86.08-1.72.13-2.6.13a28.61,28.61,0,0,1-16.06-4.91c-.76-.52-1.5-1.07-2.21-1.66A28.73,28.73,0,0,1,63.44,5.76c.89,0,1.76.06,2.63.14q.39,0,.78.09c.63.07,1.25.17,1.87.28l.78.15A28.81,28.81,0,0,1,88.59,20.64l.32.61c.28.54.55,1.09.79,1.64.1.22.2.44.29.66.3.71.56,1.43.8,2.17.07.21.13.43.19.64.2.67.38,1.35.53,2,0,.15.07.29.1.44.16.8.28,1.62.37,2.45l.06.61c.08.86.13,1.73.13,2.61s0,1.76-.13,2.63c0,.26-.06.52-.09.79-.07.62-.17,1.24-.28,1.86l-.15.78A28.81,28.81,0,0,1,77.3,59.65Z"/><polygon class="cls-1" points="96.5 43.64 63.44 95.08 30.38 43.64 42.41 58.69 64.63 69 86.36 57.61 96.5 43.64"/></g></g></svg>